<svg xmlns="http://www.w3.org/2000/svg" xmlns:xlink="http://www.w3.org/1999/xlink" viewBox="0 0 156.35 73.3"><defs><linearGradient id="a" x1="92.41" y1="258.83" x2="104.49" y2="224.71" gradientTransform="matrix(1 0 0 -1 0 275.3)" gradientUnits="userSpaceOnUse"><stop offset="0" stop-color="#485bff"/><stop offset="1" stop-color="#ff59f8"/></linearGradient><linearGradient id="b" x1="105.71" y1="263.54" x2="117.79" y2="229.43" xlink:href="#a"/><linearGradient id="c" x1="120.91" y1="268.92" x2="132.98" y2="234.8" xlink:href="#a"/><linearGradient id="d" x1="89.9" y1="280.26" x2="150.1" y2="205.72" xlink:href="#a"/></defs><g fill="#fff"><path d="M0 18.15h4.47v21.27H0zM22.59 31.77q0 .09-.09 1.2H10.83a3.66 3.66 0 001.49 2.27 5 5 0 002.93.83 6.24 6.24 0 002.12-.34 5.53 5.53 0 001.75-1.15l2.38 2.58a8 8 0 01-6.37 2.49 10.12 10.12 0 01-4.61-1 7.55 7.55 0 01-3.1-2.84 7.74 7.74 0 01-1.09-4.1 7.85 7.85 0 011.06-4.07 7.59 7.59 0 013-2.84 8.67 8.67 0 014.22-1 8.59 8.59 0 014.1 1 7.06 7.06 0 012.87 2.81 8.26 8.26 0 011.01 4.16zm-8-4.62A3.84 3.84 0 0012 28a3.72 3.72 0 00-1.27 2.35h7.6A3.61 3.61 0 0017.11 28a3.75 3.75 0 00-2.52-.85zM34.37 38.68a4.86 4.86 0 01-1.64.74 8.12 8.12 0 01-2 .23 6.07 6.07 0 01-4.28-1.4A5.42 5.42 0 0125 34.12v-6.34h-2.42v-3.44H25v-3.75h4.48v3.75h3.84v3.44h-3.88v6.28a2.22 2.22 0 00.48 1.52 1.94 1.94 0 001.44.52 2.82 2.82 0 001.8-.58zM55.49 23.77a6.1 6.1 0 014.58 1.72 6.85 6.85 0 011.72 5.1v8.83h-4.47v-8.14a4.09 4.09 0 00-.77-2.72 2.63 2.63 0 00-2.15-.92 3.17 3.17 0 00-2.5 1 4.34 4.34 0 00-.92 3v7.74h-4.47v-8.1q0-3.64-2.92-3.64a3.14 3.14 0 00-2.47 1 4.34 4.34 0 00-.92 3v7.74h-4.47V24H40v1.78a5.63 5.63 0 012.1-1.49 7.05 7.05 0 012.75-.52 6.49 6.49 0 012.95.66 5.09 5.09 0 012.12 1.86 6.42 6.42 0 012.38-1.86 7.69 7.69 0 013.19-.66zM79.93 31.77c0 .06 0 .46-.08 1.2H68.18a3.66 3.66 0 001.49 2.27 5 5 0 002.92.83 6.3 6.3 0 002.13-.34 5.53 5.53 0 001.75-1.15l2.37 2.58a8 8 0 01-6.36 2.49 10.2 10.2 0 01-4.62-1 7.53 7.53 0 01-3.09-2.84 7.74 7.74 0 01-1.09-4.1 7.85 7.85 0 011.06-4.07 7.53 7.53 0 013-2.84 9.15 9.15 0 018.26-.06 7 7 0 012.86 2.81 8.17 8.17 0 011.07 4.22zm-8-4.62a3.87 3.87 0 00-2.55.86 3.66 3.66 0 00-1.26 2.35h7.6A3.61 3.61 0 0074.46 28a3.76 3.76 0 00-2.53-.85z"/></g><path d="M106.09 24L103 39.42h-4.23l.29-1.52a7.2 7.2 0 01-8.06.92 6.31 6.31 0 01-2.43-2.38 7.32 7.32 0 01-.89-3.7 9.28 9.28 0 011.12-4.58 8.33 8.33 0 013.09-3.22 8.22 8.22 0 014.3-1.17c2.37 0 4 .77 5 2.32l.4-2.09zM95.71 36a4.22 4.22 0 004-2.43 5.76 5.76 0 00.58-2.64 3.31 3.31 0 00-.95-2.49 3.45 3.45 0 00-2.58-.92 4.27 4.27 0 00-2.35.66 4.32 4.32 0 00-1.61 1.77 5.89 5.89 0 00-.57 2.64A3.39 3.39 0 0093.1 35a3.59 3.59 0 002.61 1z" fill="url(#a)"/><path d="M111.63 39.65a16.18 16.18 0 01-3.81-.43 8.23 8.23 0 01-2.82-1.17l1.72-3.24a8.77 8.77 0 002.43 1.06 11 11 0 002.93.4 5.31 5.31 0 002.27-.37 1.24 1.24 0 00.74-1.12.87.87 0 00-.66-.83 13.64 13.64 0 00-2.12-.55 19.87 19.87 0 01-2.75-.69 4.73 4.73 0 01-1.87-1.2 3.37 3.37 0 01-.77-2.32 4.57 4.57 0 012.12-4 10 10 0 015.62-1.43 14 14 0 013.12.34 9.54 9.54 0 012.59.95l-1.61 3.27a8.41 8.41 0 00-4.56-1.18 4.81 4.81 0 00-2.24.43 1.27 1.27 0 00-.74 1.09.94.94 0 00.66.89 15.06 15.06 0 002.21.57 17.6 17.6 0 012.66.69 4.26 4.26 0 011.88 1.19 3.21 3.21 0 01.77 2.26 4.47 4.47 0 01-2.18 4 10 10 0 01-5.59 1.39z" fill="url(#b)"/><path d="M131.6 30.71l5.3 8.71h-5.19l-3.67-6-2.72 2.27-.75 3.72h-4.47l4.24-21.27h4.47l-2.38 11.9 7.4-6.05h5.82z" fill="url(#c)"/><path d="M140.38 73.3a3.57 3.57 0 01-2.43-1l-14.7-13.56H86.82a7.9 7.9 0 01-7.89-7.89V48h4.3v2.86a3.59 3.59 0 003.59 3.59h38.11l14.28 13.17-3.44-16h12.69a3.59 3.59 0 003.59-3.62V7.88a3.59 3.59 0 00-3.59-3.58H86.82a3.59 3.59 0 00-3.59 3.58v7.17h-4.3V7.88A7.9 7.9 0 0186.82 0h61.64a7.9 7.9 0 017.89 7.88V48a7.9 7.9 0 01-7.89 7.88h-7.37l2.79 13a3.59 3.59 0 01-3.5 4.34z" fill="url(#d)"/></svg>